<?xml version="1.0" encoding="UTF-8" standalone="no"?>
<svg
   xmlns:dc="http://purl.org/dc/elements/1.1/"
   xmlns:cc="http://creativecommons.org/ns#"
   xmlns:rdf="http://www.w3.org/1999/02/22-rdf-syntax-ns#"
   xmlns:svg="http://www.w3.org/2000/svg"
   xmlns="http://www.w3.org/2000/svg"
   xmlns:sodipodi="http://sodipodi.sourceforge.net/DTD/sodipodi-0.dtd"
   xmlns:inkscape="http://www.inkscape.org/namespaces/inkscape"
   viewBox="0 0 700.00002 699.99999"
   version="1.1"
   id="svg4"
   sodipodi:docname="nyu-logo.svg"
   width="700"
   height="700"
   inkscape:version="0.92.4 (5da689c313, 2019-01-14)"
   inkscape:export-filename="C:\Users\suitedoalex\svg-nyu-logo-0.png"
   inkscape:export-xdpi="561.73712"
   inkscape:export-ydpi="561.73712">
  <metadata
     id="metadata10">
    <rdf:RDF>
      <cc:Work
         rdf:about="">
        <dc:format>image/svg+xml</dc:format>
        <dc:type
           rdf:resource="http://purl.org/dc/dcmitype/StillImage" />
        <dc:title></dc:title>
      </cc:Work>
    </rdf:RDF>
  </metadata>
  <defs
     id="defs8" />
  <sodipodi:namedview
     pagecolor="#ffffff"
     bordercolor="#666666"
     borderopacity="1"
     objecttolerance="10"
     gridtolerance="10"
     guidetolerance="10"
     inkscape:pageopacity="0"
     inkscape:pageshadow="2"
     inkscape:window-width="1600"
     inkscape:window-height="837"
     id="namedview6"
     showgrid="false"
     inkscape:zoom="0.44926305"
     inkscape:cx="67.287382"
     inkscape:cy="124.09794"
     inkscape:window-x="-8"
     inkscape:window-y="-8"
     inkscape:window-maximized="1"
     inkscape:current-layer="svg4" />
  <path
     class="st0"
     d="m 299.98022,795.22149 h 28.01108 l 64.02533,84.03325 v -84.03325 h 29.61172 v 136.05383 h -25.61014 l -66.42628,-86.4342 v 86.4342 h -29.61171 z m 188.87473,82.43261 -52.8209,-82.43261 h 35.21393 l 32.81298,54.42153 32.81299,-54.42153 h 34.41361 l -52.02058,81.6323 v 54.42153 H 489.65526 V 877.6541 Z m 95.23768,-4.8019 v -77.63071 h 29.61171 v 76.8304 c 0,22.40886 11.20444,33.6133 29.61172,33.6133 18.40728,0 29.61172,-11.20444 29.61172,-32.81299 v -77.63071 h 29.61171 v 76.8304 c 0,41.61646 -23.20918,61.62438 -60.02375,61.62438 -36.81456,0 -58.42311,-20.80823 -58.42311,-60.82407 m -480.18999,-5.60221 c -24.809827,-14.4057 -22.408877,-36.01425 -12.004761,-51.22027 0,0 0,-0.80031 0,-1.60063 -0.800316,-4.00158 -4.8019,-12.80507 -6.402533,-15.20602 -0.800317,-0.80031 -0.800317,-0.80031 -0.800317,0 0,4.00159 -4.8019,14.4057 -12.004749,26.41045 -8.003167,13.60539 -8.003167,41.61647 31.21236,41.61647 0,0.80031 0,0 0,0 m 6.40253,-0.80032 c -14.405707,-31.21235 14.4057,-52.02058 19.2076,-56.02216 0.80031,-0.80032 0.80031,-0.80032 0.80031,-1.60064 0,-9.6038 -5.60221,-25.61013 -7.20285,-28.01108 0,0 -0.80031,0 -0.80031,0 -2.40095,9.6038 -16.00633,24.0095 -18.40728,27.21077 -23.209194,26.41045 -17.606977,43.2171 6.40253,58.42311 0,0.80032 0,0 0,0 m 4.8019,-1.60063 c 7.20285,-33.6133 34.41361,-34.41362 36.81456,-40.81615 4.00159,-9.6038 -3.20126,-27.21077 -4.8019,-29.61172 0,0 -0.80031,0 -0.80031,0 -4.00159,8.00317 -9.6038,16.00634 -14.4057,19.2076 -5.60222,5.60222 -29.61172,23.20919 -16.80665,51.22027 -0.80032,0.80031 0,0.80031 0,0 m 4.8019,3.20126 c 44.01741,1.60064 47.21868,-38.41519 47.21868,-53.62121 0,-0.80032 -0.80032,-0.80032 -0.80032,0 -1.60063,3.20127 -7.20285,14.4057 -23.20918,20.80823 -13.60538,6.40254 -22.40887,20.00792 -23.20918,32.81298 -0.80032,0 0,0 0,0 m 9.6038,4.8019 H 95.099146 v 10.40412 h 34.413624 z m -20.00792,81.6323 c 0,1.60064 4.00158,2.40095 4.8019,0 l 8.00317,-66.42628 H 102.302 Z m 128.05067,28.01109 H -2.539486 v -240.095 H 237.55552 Z"
     id="path2"
     inkscape:connector-curvature="0"
     style="stroke-width:8.0031662;fill:#572b88;fill-opacity:1"
     inkscape:export-filename="C:\Users\suitedoalex\svg-nyu-logo-4.png"
     inkscape:export-xdpi="95.308472"
     inkscape:export-ydpi="95.308472" />
  <path
     inkscape:connector-curvature="0"
     class="st0"
     d="m 333.14829,290.79158 c -30.72972,-17.8431 -27.75588,-44.6076 -14.86926,-63.44193 v -1.98257 c -0.99127,-4.95644 -5.94764,-15.86049 -7.93018,-18.83433 -0.99126,-0.99126 -0.99126,-0.99126 -0.99126,0 0,4.95644 -5.94775,17.84306 -14.86926,32.71225 -9.91282,16.8518 -9.91282,51.54658 38.65996,51.54658 0,0.99127 0,0 0,0 m 7.93017,-0.9913 c -17.84299,-38.65993 17.84306,-64.4332 23.7907,-69.38964 0.99134,-0.99127 0.99134,-0.99127 0.99134,-1.98254 0,-11.89535 -6.93898,-31.72094 -8.92151,-34.69478 h -0.99127 c -2.97391,11.89535 -19.82563,29.73841 -22.79943,33.70352 -28.74715,32.71225 -21.80817,53.52911 7.93017,72.36344 0,0.9913 0,0 0,0 m 5.94771,-1.98261 c 8.92155,-41.63369 42.62503,-42.62496 45.59887,-50.55524 4.95637,-11.89535 -3.96511,-33.70348 -5.94771,-36.67732 h -0.99127 c -4.95637,9.91282 -11.89535,19.82553 -17.84299,23.7907 -6.93901,6.93891 -36.67743,28.74708 -20.8169,63.44186 -0.99127,0.99127 0,0.99127 0,0 m 5.94764,3.96518 c 54.52038,1.98253 58.48556,-47.5814 58.48556,-66.41577 0,-0.99127 -0.99134,-0.99127 -0.99134,0 -1.98257,3.96511 -8.92148,17.84299 -28.74707,25.77327 -16.8518,7.93025 -27.75588,24.78197 -28.74715,40.6425 -0.99126,0 0,0 0,0 m 11.89535,5.94764 h -42.62495 v 12.88662 h 42.62495 z M 340.08719,398.841 c 0,1.98254 4.95645,2.97384 5.94771,0 l 9.91282,-82.27618 h -24.78208 z m 158.60474,34.69479 H 201.30806 V 136.15192 h 297.38387 z"
     id="path2-2"
     style="stroke-width:9.91279602;fill:#572b88;fill-opacity:1"
     sodipodi:nodetypes="ccccscccccscccccccccccccsccccccccccccccccccc"
     inkscape:export-filename="C:\Users\suitedoalex\svg-nyu-logo-5.png"
     inkscape:export-xdpi="225.97058"
     inkscape:export-ydpi="225.97058" />
  <path
     inkscape:connector-curvature="0"
     class="st0"
     d="m 201.30806,461.5669 h 20.6927 l 47.29767,62.07807 V 461.5669 H 291.1735 V 562.0744 H 272.25451 L 223.1832,498.22255 v 63.85185 h -21.87514 z m 139.52799,60.89568 -39.02049,-60.89567 h 26.01372 l 24.24003,40.20293 24.24005,-40.20293 h 25.42242 l -38.42932,60.30451 v 40.20299 h -21.87514 v -39.61183 z m 70.35532,-3.54736 V 461.5669 h 21.87514 v 56.75715 c 0,16.55425 8.2771,24.83122 21.87513,24.83122 13.59808,0 21.87516,-8.27697 21.87516,-24.24005 V 461.5669 h 21.87514 v 56.75714 c 0,30.74347 -17.14537,45.52403 -44.34155,45.52403 -27.19611,0 -43.15901,-15.37177 -43.15901,-44.93286"
     id="path2-2-7"
     style="stroke-width:5.91220474;fill:#572b88;fill-opacity:1"
     sodipodi:nodetypes="cccccccccccccccccccccccccsssccssc"
     inkscape:export-filename="C:\Users\suitedoalex\svg-nyu-logo-5.png"
     inkscape:export-xdpi="225.97058"
     inkscape:export-ydpi="225.97058" />
</svg>
