<?xml version="1.0" encoding="utf-8"?>
<!DOCTYPE svg PUBLIC "-//W3C//DTD SVG 1.1//EN" "http://www.w3.org/Graphics/SVG/1.1/DTD/svg11.dtd">
<svg version="1.1" id="Layer_1" xmlns="http://www.w3.org/2000/svg" width="500px" height="162.901px">
<path d="M497.622,2.378c-5.351,0-497.622,0-497.622,0L2.378,0c0,0,492.271,0,497.622,0L497.622,2.378z"/>
<path d="M391.053,11.445c0,0-5.054-0.446-5.054,9.364l0.027,36.861c0,6.54,2.021,8.389,6.243,8.918c1.428,0.178-0.277,2.061-0.595,2.378c-0.297,0.297-8.918-0.892-18.431,0c-1.185,0.11-0.297-0.892-0.297-2.081s5.351-0.297,5.351-6.243l-0.028-38.496c0-10.999-8.323-10.107-8.323-10.107s-1.188-2.675,3.567-2.675c2.081,0,12.337,0.297,17.539,0c1.335-0.077,1.337,0.297,0.892,0.892C391.498,10.85,391.944,11.296,391.053,11.445z M193.52,75.505c0.595-1.486,9.958-30.767,16.052-47.265c1.856-5.027,4.756-16.052,9.215-16.647V9.513h-17.241c0,0-3.27,1.189,0.892,3.27c4.162,2.081,5.351,5.648,2.378,14.863c-2.973,9.215-11.296,29.429-11.296,29.429l-12.188-34.482c-2.676-8.026,0.594-10.404,3.567-10.404l0.965-2.675h-19.025c-4.756,0-3.864,2.081-3.864,2.081s4.756,0.297,9.215,12.188l19.545,52.913C192.925,77.289,192.967,76.885,193.52,75.505z M257.172,101.293c-0.78,2.676-3.456,2.75-7.469,2.75c-4.461,0-10.404,0.892-10.404,0.892V87.099h16.35c0,0,6.837,0.297,8.323,6.242s4.756,1.784,3.27-2.08c-1.486-3.865-1.486-10.404-1.486-10.404l-4.311,0.445h-35.672c-4.756,0-2.973,2.973-2.973,2.973s7.729-0.297,7.729,9.81l0.028,37.604c0,5.945-4.789,5.788-5.351,6.837c-1.486,2.774-0.496,2.378,1.486,2.378c0,0,22.415-0.594,35.494,0c1.781,0.082,4.162,1.486,5.352-0.594c1.391-2.436,2.08-13.08,2.08-13.08s-0.476-4.798-3.27,0c-2.698,4.631-2.676,8.621-13.08,8.621s-13.674-0.595-13.971-4.162c-0.298-3.567,0-21.403,0-21.403s1.188-1.783,5.053-1.783c3.865,0,5.945,0,5.945,0s5.374,0.412,6.54,6.242c0.298,1.486,2.378-0.595,2.378-0.595v-11.891C259.215,102.259,258.844,100.698,257.172,101.293 M364.001,70.303c-0.595,0.595-9.958,8.473-23.93,8.473c-16.944,0-27.942-13.972-33.294-22.295c-5.351-8.324-12.471-15.83-12.471-15.83c-2.896-3.751-6.837-2.378-6.837-2.378s0,20.076,0,22.889c0-0.594-0.428,3.406,4.147,4.534c4.654,1.146,1.486,2.973,1.486,2.973l-19.131-0.075c-1.188,0,0-0.594,0-1.784c0-1.189,5.648-0.297,5.648-6.242l-0.029-39.09c0.892-9.81-7.729-10.404-7.729-10.404c0-2.378,1.316-2.671,4.296-2.452c7.731,0.565,24.241,0.668,28.105,0.371c6.837,0,12.323,6.466,12.323,13.303c0,9.215-10.107,14.863-16.053,14.863c0,0,6.682,4.151,16.053,18.43c9.363,14.269,18.133,17.539,27.199,17.985c3.265,0.16,10.553-0.298,18.728-5.054C367.717,65.492,364.596,69.709,364.001,70.303z M296.981,33.516c2.824-0.297,6.688-0.965,8.361-3.046c0,0,2.029-4.013,2.029-7.283c0-3.27-2.959-8.398-8.31-9.587l-11.593,0.595v18.431C287.47,32.625,292.547,33.983,296.981,33.516z M366.528,8.323c0,0-1.486,0.892-4.162,0.595s-8.623-1.299-12.485-1.189c-10.404,0.297-19.916,8.323-19.916,16.647c0,8.323,6.539,13.674,16.052,15.755c9.513,2.081,14.863,4.459,14.863,12.782c0,7.134-7.729,10.107-13.377,10.107c-5.647,0-12.852-4.414-16.052-9.215c-2.379-3.567-1.784-6.837-1.784-6.837l-3.121,1.189c0,0,1.04,7.432,0.148,10.999c-0.664,2.659,7.135,9.81,19.025,9.81c14.565,0,24.078-6.837,24.078-21.105c0-11.891-14.565-14.566-18.728-15.458c-4.162-0.892-12.485-3.864-12.485-10.702c0-6.837,7.135-8.323,12.188-8.323c5.053,0,8.917,2.081,10.998,5.054s2.081,5.648,2.081,5.648l2.676-0.892c0,0-0.893-6.242-0.893-8.323C365.636,12.485,366.528,8.621,366.528,8.323z M394.471,11.891c0.208,2.091,0,9.81,0,11.296c0,3.865,2.676,1.784,2.973,0c1.527-9.167,5.945-7.729,13.08-7.729c3.567,0,2.973,5.351,2.973,2.973c0-2.378,0,38.941,0,41.617c0,2.676-3.864,5.945-5.648,6.243c-1.783,0.297-0.892,2.675-0.892,2.675h21.105c0,0,1.189-1.783,0.595-2.081c-1.683-0.842-6.242-1.189-6.242-5.351c0-2.675,0-39.536,0-43.4c0-3.865,3.864-2.675,7.134-2.675c5.648,0,7.092,0.846,8.324,8.621c0.32,2.021,2.675,0.594,2.675-0.595c0-2.081,0-7.432,0-10.999c0-2.378-0.595-2.973-0.595-2.973c-1.188-1.189-4.161,0.594-5.945,0.594c-1.783,0-34.482,0-34.482,0C395.66,8.621,394.174,8.918,394.471,11.891z M63.169,113.109c-1.486,9.215-9.215,17.241-15.161,18.431c-4.526,0.904-12.148,0.357-10.107-11.891c0.595-3.567,2.973-7.432,5.351-10.404C51.147,99.375,65.519,98.539,63.169,113.109z M56.926,108.947c-1.486-2.973-6.54-1.486-10.107,3.271c-4.568,6.09-5.945,13.674-1.189,14.269c4.756,0.595,6.54-2.081,9.512-5.945S59.007,113.109,56.926,108.947z M80.262,91.261c-7.877,6.539-9.661,13.971-9.661,13.971h-4.608l1.041,3.271c0,0,1.932-0.298,1.932,0.297c0,0.892-1.337,6.688-6.837,16.647c-5.182,9.381-12.763,11.721-17.836,11.891c-4.17,0.138-8.918-2.081-8.918-2.081v2.973c7.134,5.945,19.471,3.121,27.943-6.243c8.603-9.51,11.891-22.889,11.891-23.187c0-0.297,0.3,0.142,3.865,0c7.432-0.297,4.657,6.185,5.351,6.54c0.682,0.349,2.378-1.783,2.378-1.783v-10.404c0,0-1.401-0.882-1.486-0.595c-0.892,2.973-8.621,2.675-8.621,2.378c0,0,1.784-5.648,7.134-10.701c6.233-5.889,14.566-9.513,14.269-7.432c-0.297,2.08,0,5.053,3.567,5.053V81.153l-2.675,0.297C91.26,82.937,85.619,86.811,80.262,91.261z M154.578,79.964c-0.892,0.298-4.162,1.784-5.945,1.784c-1.784,0-7.432-1.486-13.377-1.486c-10.702,0-21.106,2.675-28.835,13.377c-11.216,15.529-11.891,34.186-7.134,49.644c4.756,15.457,22.592,19.619,28.538,19.619c7.432,0,7.134,0,13.971-4.459c3.521-2.297,16.647-7.135,16.647-7.135s0-17.836,0-21.7s6.54-5.351,6.54-5.351l0.297-2.676h-26.754l-0.892,3.271c3.864,0,8.918,2.378,8.918,4.459s0,15.755,0,15.755c0-1.783,0.297,8.323-12.782,8.323c-21.999,0-24.971-16.052-24.971-32.104c0-10.999,3.865-21.105,9.215-27.349c5.351-6.242,15.755-5.945,24.376-5.054c8.621,0.893,10.999,14.27,10.999,14.27l2.676-0.893l0.594-21.402C156.659,80.856,155.47,79.667,154.578,79.964z M164.09,84.126c0,0,5.648,1.486,5.648,3.567s0,37.158,0,37.158c0,10.999,8.324,17.241,22.295,17.241c11.296,0,21.998-10.404,21.998-23.187c0-2.576,0.297-25.13,0.297-29.43c0-3.864,4.162-5.351,4.162-5.351l0.594-2.973h-16.052c0,0-3.865,2.973-2.378,2.973c5.648,0,8.026,2.973,8.026,5.054c0,0.297,0,21.403,0,32.104s-11.296,14.566-16.647,14.566c-5.351,0-13.08-4.757-13.08-11.594c0-1.783,0-30.916,0-34.78s5.351-5.054,5.351-5.054l0.297-2.973h-19.619C164.982,81.45,161.712,84.423,164.09,84.126z M271.403,83.829c2.237,1.492,6.54-0.595,6.54,5.647c0,2.973,0,26.754,0,37.158c0,12.188-5.648,12.485-5.648,12.485l0.595,1.783c0,0,26.754-0.892,34.186-0.297c4.403,0.352,6.242,0.892,7.134-0.892c0.893-1.784,1.486-14.566,1.486-14.566l-1.783,0.298c0,0-1.486,6.837-7.135,9.215c-3.064,1.289-14.068,1.563-16.35,0.892c-5.053-1.486-3.566-2.081-3.566-3.864s0-34.78,0-40.131c0-8.323,5.945-7.432,5.945-7.432l0.892-2.378H272.89C272.89,81.748,270.512,83.234,271.403,83.829z M354.935,109.69c-5.351,3.865-10.106,4.459-21.403,3.271c-1.479-0.156-1.188,2.378-1.188,3.864s0,13.972,0,16.053c0,2.08,2.973,5.351,7.729,5.351c0.298,0-1.188,2.378-1.188,2.378h-20.512c0,0-0.892-1.486,0.595-2.081s4.161-1.188,4.459-4.756c0.297-3.567,0-40.429,0-43.698c0-1.783-1.486-4.756-5.648-4.756l0.892-2.676c0,0,13.099,0.135,17.836-0.595c7.729-1.188,14.438-0.695,19.917,2.676c3.864,2.378,5.648,7.729,5.945,10.999C362.984,102.528,358.409,107.181,354.935,109.69z M353.151,97.206c0-4.757-4.162-8.918-7.729-9.811c-3.566-0.892-12.782,0-12.782,0v19.322c0,0-0.295,3.334,10.404,2.973C349.884,109.459,353.151,101.962,353.151,97.206z M417.937,140.98l0.02-2.079c-1.226-0.011-5.314-0.338-5.299-6.877c0.01-3.271,0.021-41.11,0.046-43.998c0.026-3.334,5.979-4.409,5.979-4.409l0.317-1.796l-20.211-0.139l-0.322,2.378c0,0,5.518,0.512,5.518,4.078c0,12.709,0,17.391,0,17.391h-25.862c-1.486,0-0.892-0.892-0.892-2.378s0-10.999,0-14.566s4.162-3.864,4.162-3.864l0.892-2.973h-18.728l-0.595,2.378c0,0,5.647-0.595,5.945,3.864c0.216,3.262,0,41.617,0,43.995c0,2.081-1.749,6.54-5.351,6.838l-0.298,2.08c0,0,16.053,0,18.431,0c0.297,0,2.676-2.08-0.595-2.973c-2.45-0.669-4.161-2.378-4.161-6.242s0-19.619,0-20.809s0.297-0.892,1.783-0.892s24.971,0,24.971,0s0,19.322,0,21.997c0,5.945-2.901,5.753-4.162,6.54c-1.783,1.115-1.621,2.123,0,2.378C400.937,141.127,417.937,140.98,417.937,140.98z M62.426,23.187v40.726c0,10.701-8.324,17.241-20.214,17.241c-11.89,0-20.214-7.729-20.214-20.809V23.187c0-13.08,6.571-10.735,7.283-12.039c0.892-1.635,1.041-1.932-0.149-2.229c0,0-15.012,0.892-26.011,0c0,0-3.321,2.349-1.189,2.527c8.489,0.706,8.77,4.756,8.77,12.931v42.211c0,0-0.892,22.592,28.834,22.592c12.485,0,19.917-5.054,23.781-10.107c0,0,6.243-6.242,6.243-15.16V22.89l0.025-0.224c0-13.08,6.571-10.438,7.283-11.742c0.892-1.635,1.04-1.932-0.149-2.229c0,0-13.996-0.172-25.416,0c0,0-3.321,2.35-1.189,2.527c8.489,0.707,12.336,3.716,12.336,11.891L62.426,23.187z M130.124,23.646c-0.16-13.079,5.105-10.503,5.801-11.815c0.873-1.646,1.018-1.946-0.175-2.229c0,0-5.936,0.896-16.945,0.138c0,0-3.292,2.389-1.158,2.541c8.498,0.603,7.922,3.668,8.022,11.843l-0.075,29.68c-1.338,0.743-28.983-40.577-28.983-40.577l-2.65-3.865c0,0-1.486,0.595-12.485-0.297c0,0-3.321,2.349-1.189,2.527c8.489,0.706,7.729,3.716,7.729,11.891l-0.025,8.472l0.048,23.162c-0.143,13.08-6.09,10.365-6.816,11.663c-0.91,1.625-1.062,1.92,0.125,2.23c0,0,6.994-0.734,17.983,0.279c0,0,3.346-2.313,1.216-2.513c-8.482-0.8-7.835-3.852-7.747-12.027l-0.054-29.78c0,0,28.463,35.968,31.51,46.374c0,0,0.743,2.601,2.378,0.743c1.212-1.379,1.575-1.071,2.452-1.635c1.041-0.67,1.041-1.116,1.115-2.378L130.124,23.646z M240.785,37.456c1.486-0.892,7.432-1.486,10.998-1.784c3.567-0.297,5.945,4.162,6.243,6.54c0.297,2.378,2.607,0.605,2.378-0.892c-0.595-3.864,0-9.215,0-12.188c0-2.081-1.783-1.486-2.378-0.594c-1.189,1.784-2.676,2.973-5.945,3.567c-3.271,0.595-11.296,1.189-11.296,1.189l-0.298-0.892V14.566h16.35c0,0,7.089,0.393,8.918,6.243c1.486,4.756,3.271,1.189,2.676-2.081c-0.741-4.073-1.486-10.404-1.486-10.404l-4.311,0.446h-35.672c-2.676,0-2.973,2.675-2.973,2.675s7.729-0.297,7.729,9.81l0.029,37.901c0,5.945-6.243,5.351-6.243,6.54c0,1.189,1.189,2.675,2.378,2.675c0,0,33.712,0,35.495,0s5.054,1.783,5.351-0.595c0.348-2.783,2.081-13.08,2.081-13.08s0.051-3.056-2.676,0c-1.193,1.336-1.783,8.323-13.674,8.621c-10.402,0.259-13.674-0.594-13.972-4.162c-0.297-3.567,0-21.403,0-21.403L240.785,37.456z M479.488,69.263c2.824,0,1.933-0.297,2.824-1.337c0.893-1.041,0-1.486-1.635-1.338s-4.311-0.743-4.459-5.202s0-17.093,0-17.093c0.892-1.486,8.918-15.458,12.188-21.7l1.777-3.066c1.737-3,2.271-5.803,5.499-6.242c0.896-0.122,0.859-0.386,2.378-0.892c0.893-0.297,1.784-2.378,0.595-2.378c-2.234,0-16.646,0-17.984,0c-0.595,0-3.257,0.824-1.04,1.932c0.594,0.297,2.759-0.181,4.459,1.189c0.775,0.626,2.385,3.66,1.047,6.187l-11.891,19.322c0,0-9.513-16.944-11.296-19.917c-1.784-2.973-1.446-5.209,1.783-5.648c0.896-0.123,0.859-0.387,2.378-0.892c0.893-0.297,1.784-2.378,0.595-2.378c-2.235,0-19.322,0-20.659,0c-0.595,0-3.259,0.823-1.041,1.933c0.595,0.297,3.567,1.189,4.311,2.378s15.755,27.943,17.688,32.253c0.814,1.819,0.696,11.892,0.594,14.863c-0.148,4.31-1.438,4.756-3.418,5.351c-1.424,0.427-2.081,1.041-2.229,1.932c-0.148,0.892,0.301,0.735,3.716,0.743C471.321,69.275,479.488,69.263,479.488,69.263z M154.578,20.957c0-9.81,4.905-8.769,4.905-8.769c0.892-0.149,0.594-1.041,1.041-1.635c0.446-0.594,0.443-0.959-0.892-0.892c-2.973,0.148-14.417,0-16.498,0l-1.472-0.075c-4.756,0-3.121,2.675-3.121,2.675s8.323-0.892,8.323,10.107l0.029,38.496c0,5.945-5.351,5.054-5.351,6.243s-0.887,2.192,0.297,2.081c9.513-0.892,18.133,0.297,18.431,0c0.316-0.318,2.022-2.2,0.594-2.378c-4.224-0.527-6.242-2.378-6.242-8.918L154.578,20.957z"/>
<path d="M417.063,149.821c-9.967,0-252.081,0-252.081,0l2.378-2.378c0,0,246.73,0,252.081,0L417.063,149.821z"/>
</svg>
