<svg xmlns="http://www.w3.org/2000/svg" xmlns:xlink="http://www.w3.org/1999/xlink" width="76" height="24" viewBox="0 0 76 24">
    <defs>
        <path id="bzerbj8v1a" d="M0 0.107L23.332 0.107 23.332 23.152 0 23.152z"/>
        <path id="b3tk0pq1sc" d="M0.187 0.117L7.508 0.117 7.508 7.172 0.187 7.172z"/>
    </defs>
    <g fill="none" fill-rule="evenodd">
        <g transform="translate(0 .11)">
            <mask id="wpee2f67gb" fill="#fff">
                <use xlink:href="#bzerbj8v1a"/>
            </mask>
            <path fill="#393" d="M23.332 23.152h-5.034l-1.64-4.744H6.673l-1.607 4.744H0L8.84.107h3.652c1.239 0 2.035.381 2.359 1.267.323.883 4.35 11.134 4.35 11.134h-4.709l-2.859-7.786-3.62 9.808h10.111c1.356 0 2.101.438 2.46 1.54l2.748 7.082z" mask="url(#wpee2f67gb)"/>
        </g>
        <path fill="#393" d="M67.484 23.263h-5.035l-1.64-4.744h-9.984l-1.608 4.744h-5.065L52.992.217h3.652c1.239 0 2.035.382 2.358 1.268.323.883 4.35 11.134 4.35 11.134h-4.708l-2.859-7.786-3.62 9.808h10.111c1.356 0 2.1.438 2.46 1.54l2.953 7.285M33.5 19.095c4.45 0 6.333-2.148 6.333-7.34 0-5.128-1.785-7.5-5.747-7.5h-4.45v14.84H33.5zM24.93.217h9.157c7.145 0 10.652 3.75 10.652 11.538 0 4.296-1.364 7.534-3.8 9.456-2.273 1.795-4.807 2.051-8.15 2.051h-7.86V.217z"/>
        <g transform="translate(67.596 16.41)">
            <mask id="04b386qkbd" fill="#fff">
                <use xlink:href="#b3tk0pq1sc"/>
            </mask>
            <path fill="#393" d="M3.315 3.484h.391c.457 0 .826-.15.826-.515 0-.322-.24-.536-.76-.536-.218 0-.37.022-.457.043v1.008zm-.022 1.972h-.825V1.961c.326-.064.782-.128 1.369-.128.673 0 .977.107 1.238.278.195.15.347.43.347.75 0 .408-.304.708-.738.837v.043c.347.107.543.386.652.858.108.536.173.75.26.857h-.89c-.11-.128-.174-.429-.283-.836-.065-.386-.282-.557-.739-.557h-.39v1.393zM3.837.825C2.272.825 1.1 2.09 1.1 3.634c0 1.565 1.172 2.809 2.78 2.809 1.564.021 2.715-1.244 2.715-2.81 0-1.543-1.15-2.808-2.737-2.808h-.021zM3.88.117c2.042 0 3.628 1.566 3.628 3.517 0 1.994-1.586 3.538-3.65 3.538-2.042 0-3.671-1.544-3.671-3.538 0-1.951 1.63-3.517 3.671-3.517h.022z" mask="url(#04b386qkbd)"/>
        </g>
    </g>
</svg>
